<svg width="24" height="24" viewBox="0 0 24 24" fill="none" xmlns="http://www.w3.org/2000/svg">
<path opacity="0.35" d="M12 22C17.5229 22 22 17.5229 22 12C22 6.47715 17.5229 2 12 2C6.47715 2 2 6.47715 2 12C2 17.5229 6.47715 22 12 22Z" fill="#E64E36"/>
<path d="M12.5791 4.02097C10.2571 3.85497 7.98307 4.70397 6.34307 6.34397C4.70307 7.98398 3.85707 10.256 4.02107 12.578C4.31407 16.74 7.93407 20 12.2601 20H14.0001C14.5521 20 15.0001 19.553 15.0001 19C15.0001 18.447 14.5521 18 14.0001 18H12.2601C8.97907 18 6.23607 15.557 6.01607 12.438C5.89307 10.694 6.52807 8.98798 7.75807 7.75798C8.98707 6.52797 10.6931 5.89797 12.4391 6.01497C15.5571 6.23497 18.0001 8.97898 18.0001 12.26V13C18.0001 13.552 17.5511 14 17.0001 14C16.4491 14 16.0001 13.552 16.0001 13V12C16.0001 9.79398 14.2061 7.99998 12.0001 7.99998C9.79407 7.99998 8.00007 9.79398 8.00007 12C8.00007 14.206 9.79407 16 12.0001 16C13.0501 16 14.0001 15.585 14.7141 14.92C15.2651 15.575 16.0801 16 17.0001 16C18.6541 16 20.0001 14.654 20.0001 13V12.26C20.0001 7.93398 16.7401 4.31297 12.5791 4.02097ZM12.0001 14C10.8971 14 10.0001 13.103 10.0001 12C10.0001 10.897 10.8971 9.99998 12.0001 9.99998C13.1031 9.99998 14.0001 10.897 14.0001 12C14.0001 13.103 13.1031 14 12.0001 14Z" fill="#E64E36"/>
</svg>
