<svg width="24" height="24" viewBox="0 0 24 24" fill="none" xmlns="http://www.w3.org/2000/svg">
<path opacity="0.35" d="M18 21H6C4.343 21 3 19.657 3 18V6C3 4.343 4.343 3 6 3H18C19.657 3 21 4.343 21 6V18C21 19.657 19.657 21 18 21Z" fill="#E64E36"/>
<path d="M12 12C13.6569 12 15 10.6569 15 9C15 7.34315 13.6569 6 12 6C10.3431 6 9 7.34315 9 9C9 10.6569 10.3431 12 12 12Z" fill="#E64E36"/>
<path d="M15 14H9C7.895 14 7 14.895 7 16C7 17.105 7.895 18 9 18H15C16.105 18 17 17.105 17 16C17 14.895 16.105 14 15 14Z" fill="#E64E36"/>
</svg>
