<svg width="24" height="24" viewBox="0 0 24 24" fill="none" xmlns="http://www.w3.org/2000/svg">
<g clip-path="url(#clip0_51_64)">
<mask id="mask0_51_64" style="mask-type:luminance" maskUnits="userSpaceOnUse" x="0" y="0" width="24" height="24">
<path d="M0 0H24V24H0V0Z" fill="white"/>
</mask>
<g mask="url(#mask0_51_64)">
<path d="M7.25 4C6.2925 4 5.5 4.7925 5.5 5.75V6.741L3.1005 8.169C2.419 8.574 2 9.3105 2 10.1025V17.75C2 19.536 3.464 21 5.25 21H18.75C20.536 21 22 19.536 22 17.75V10.1035C22 9.311 21.581 8.575 20.9005 8.17L18.5 6.742V5.75C18.5 4.7925 17.7075 4 16.75 4H7.25ZM7.25 5.5H16.75C16.8975 5.5 17 5.6025 17 5.75V11.4835L12 13.916L7 11.4835V7.2845C7.01321 7.20404 7.01321 7.12196 7 7.0415V5.75C7 5.6025 7.1025 5.5 7.25 5.5ZM5.5 8.4875V10.754L3.5645 9.8125C3.6255 9.668 3.727 9.5415 3.867 9.458L5.5 8.4875ZM18.5 8.4885L20.133 9.459C20.2725 9.5425 20.3735 9.6685 20.435 9.8125L18.5 10.754V8.4885ZM3.5 11.449L11.672 15.4245C11.7743 15.4743 11.8865 15.5001 12.0002 15.5001C12.114 15.5001 12.2262 15.4743 12.3285 15.4245L20.5 11.449V17.75C20.5 18.725 19.725 19.5 18.75 19.5H5.25C4.275 19.5 3.5 18.725 3.5 17.75V11.449Z" fill="white"/>
</g>
</g>
<defs>
<clipPath id="clip0_51_64">
<rect width="24" height="24" fill="white"/>
</clipPath>
</defs>
</svg>
