<svg width="24" height="24" viewBox="0 0 24 24" fill="none" xmlns="http://www.w3.org/2000/svg">
<path d="M7.99834 2.3999C4.91114 2.3999 2.3999 4.91346 2.3999 8.00146V16.0015C2.3999 19.0887 4.91346 21.5999 8.00146 21.5999H16.0015C19.0887 21.5999 21.5999 19.0863 21.5999 15.9983V7.99834C21.5999 4.91114 19.0863 2.3999 15.9983 2.3999H7.99834ZM17.5999 5.5999C18.0415 5.5999 18.3999 5.9583 18.3999 6.3999C18.3999 6.8415 18.0415 7.1999 17.5999 7.1999C17.1583 7.1999 16.7999 6.8415 16.7999 6.3999C16.7999 5.9583 17.1583 5.5999 17.5999 5.5999ZM11.9999 7.1999C14.6471 7.1999 16.7999 9.3527 16.7999 11.9999C16.7999 14.6471 14.6471 16.7999 11.9999 16.7999C9.3527 16.7999 7.1999 14.6471 7.1999 11.9999C7.1999 9.3527 9.3527 7.1999 11.9999 7.1999ZM11.9999 8.7999C10.2326 8.7999 8.7999 10.2326 8.7999 11.9999C8.7999 13.7672 10.2326 15.1999 11.9999 15.1999C13.7672 15.1999 15.1999 13.7672 15.1999 11.9999C15.1999 10.2326 13.7672 8.7999 11.9999 8.7999Z" fill="#fe9236"/>
</svg>
