<svg width="24" height="24" viewBox="0 0 24 24" fill="#fe9236" xmlns="http://www.w3.org/2000/svg">
<g clip-path="url(#clip0_51_44)">
<g mask="url(#mask0_51_44)">
<g opacity="0.35">
<path opacity="0.35" d="M8.51299 9.18097H6.99699C6.74599 9.18097 6.54199 9.38497 6.54199 9.63597V16.003C6.54199 16.254 6.74599 16.458 6.99699 16.458H8.51299C8.76399 16.458 8.96799 16.254 8.96799 16.003V9.63597C8.96799 9.38397 8.76399 9.18097 8.51299 9.18097ZM7.75499 5.54297C7.08699 5.54297 6.54199 6.08797 6.54199 6.75597C6.54199 7.42397 7.08699 7.96897 7.75499 7.96897C8.42299 7.96897 8.96799 7.42397 8.96799 6.75597C8.96799 6.08797 8.42299 5.54297 7.75499 5.54297ZM14.658 9.18097C13.521 9.18097 12.948 9.63597 12.635 10.242H12.607V9.63597C12.607 9.38497 12.403 9.18097 12.152 9.18097H10.636C10.385 9.18097 10.181 9.38497 10.181 9.63597V16.003C10.181 16.254 10.385 16.458 10.636 16.458H12.152C12.403 16.458 12.607 16.254 12.607 16.003V13.208C12.607 11.91 12.91 11.294 13.915 11.294C14.73 11.294 15.033 11.91 15.033 13.274V16.003C15.033 16.254 15.237 16.458 15.488 16.458H17.004C17.255 16.458 17.459 16.254 17.459 16.003V12.867C17.457 10.782 17.022 9.18097 14.658 9.18097Z" fill="#fe9236"/>
</g>
<path d="M12 2C9.34784 2 6.8043 3.05357 4.92893 4.92893C3.05357 6.8043 2 9.34784 2 12C2 14.6522 3.05357 17.1957 4.92893 19.0711C6.8043 20.9464 9.34784 22 12 22C14.6522 22 17.1957 20.9464 19.0711 19.0711C20.9464 17.1957 22 14.6522 22 12C22 9.34784 20.9464 6.8043 19.0711 4.92893C17.1957 3.05357 14.6522 2 12 2ZM8.968 16.003C8.968 16.254 8.764 16.458 8.513 16.458H6.997C6.746 16.458 6.542 16.254 6.542 16.003V9.636C6.542 9.385 6.746 9.181 6.997 9.181H8.513C8.764 9.181 8.968 9.385 8.968 9.636V16.003ZM7.755 7.968C7.087 7.968 6.542 7.423 6.542 6.755C6.542 6.087 7.087 5.542 7.755 5.542C8.423 5.542 8.968 6.087 8.968 6.755C8.968 7.423 8.423 7.968 7.755 7.968ZM17.457 16.003C17.457 16.254 17.253 16.458 17.002 16.458H15.486C15.235 16.458 15.031 16.254 15.031 16.003V13.274C15.031 11.91 14.728 11.294 13.913 11.294C12.909 11.294 12.605 11.91 12.605 13.208V16.003C12.605 16.254 12.401 16.458 12.15 16.458H10.634C10.383 16.458 10.179 16.254 10.179 16.003V9.636C10.179 9.385 10.383 9.181 10.634 9.181H12.15C12.401 9.181 12.605 9.385 12.605 9.636V10.242H12.633C12.946 9.636 13.519 9.181 14.656 9.181C17.02 9.181 17.456 10.782 17.456 12.867V16.003H17.457Z" fill="#fe9236"/>
</g>
</g>
<defs>
<clipPath id="clip0_51_44">
<rect width="24" height="24" fill="#fe9236"/>
</clipPath>
</defs>
</svg>
