<svg width="24" height="24" viewBox="0 0 24 24" fill="#fe9236" xmlns="http://www.w3.org/2000/svg">
<g clip-path="url(#clip0_51_52)">
<g mask="url(#mask0_51_52)">
<path d="M11.9999 2.5C8.69489 2.5 5.99989 5.195 5.99989 8.5C5.99989 9.9785 6.87688 11.623 7.87088 13.258C8.86488 14.893 10.0244 16.4485 10.7409 17.3725C11.3669 18.1795 12.6324 18.1795 13.2584 17.3725C13.9749 16.4485 15.1344 14.893 16.1284 13.258C17.1224 11.623 17.9999 9.9785 17.9999 8.5C17.9999 5.195 15.3049 2.5 11.9999 2.5ZM11.9999 4C12.5912 3.99868 13.177 4.11418 13.7235 4.33986C14.2701 4.56554 14.7667 4.89695 15.1848 5.31508C15.6029 5.73321 15.9343 6.22981 16.16 6.77637C16.3857 7.32293 16.5012 7.90868 16.4999 8.5C16.4999 9.275 15.7909 10.926 14.8464 12.4785C13.9019 14.031 12.7694 15.5555 12.0729 16.453C12.0229 16.517 11.9764 16.517 11.9264 16.453C11.2299 15.5555 10.0974 14.031 9.15288 12.4785C8.20838 10.926 7.49989 9.275 7.49989 8.5C7.49857 7.90868 7.61406 7.32293 7.83974 6.77637C8.06542 6.22981 8.39684 5.73321 8.81496 5.31508C9.23309 4.89695 9.72969 4.56554 10.2763 4.33986C10.8228 4.11418 11.4086 3.99868 11.9999 4ZM11.9999 7C11.6021 7 11.2205 7.15804 10.9392 7.43934C10.6579 7.72064 10.4999 8.10218 10.4999 8.5C10.4999 8.89782 10.6579 9.27936 10.9392 9.56066C11.2205 9.84196 11.6021 10 11.9999 10C12.3977 10 12.7792 9.84196 13.0605 9.56066C13.3419 9.27936 13.4999 8.89782 13.4999 8.5C13.4999 8.10218 13.3419 7.72064 13.0605 7.43934C12.7792 7.15804 12.3977 7 11.9999 7ZM5.86239 15C5.17139 15 4.54289 15.408 4.26289 16.039L3.15239 18.539C2.91089 19.0825 2.95939 19.7045 3.28339 20.203C3.44187 20.4479 3.65924 20.6492 3.91561 20.7884C4.17197 20.9277 4.45915 21.0004 4.75089 21H19.2479C19.5397 21.0005 19.827 20.9278 20.0834 20.7886C20.3399 20.6493 20.5574 20.448 20.7159 20.203C21.0404 19.7045 21.0894 19.083 20.8479 18.539L19.7374 16.039C19.4569 15.408 18.8294 15 18.1379 15H16.5099C16.1914 15.4825 15.8459 15.982 15.4729 16.5H18.1379C18.1863 16.5 18.2336 16.514 18.2741 16.5404C18.3147 16.5667 18.3467 16.6043 18.3664 16.6485L19.4769 19.1485C19.5249 19.2565 19.4864 19.3445 19.4584 19.387C19.4304 19.4295 19.3674 19.5005 19.2494 19.5005H4.75089C4.70875 19.5019 4.66698 19.4923 4.62961 19.4728C4.59224 19.4533 4.56053 19.4245 4.53755 19.3892C4.51458 19.3538 4.50111 19.3131 4.49845 19.2711C4.4958 19.229 4.50404 19.187 4.52239 19.149L5.63388 16.649C5.65352 16.6048 5.68556 16.5672 5.72612 16.5409C5.76668 16.5145 5.81401 16.5005 5.86239 16.5005H8.52638C8.1706 16.0078 7.82519 15.5077 7.49039 15.0005L5.86239 15Z" fill="#fe9236"/>
</g>
</g>
<defs>
<clipPath id="clip0_51_52">
<rect width="24" height="24" fill="#fe9236"/>
</clipPath>
</defs>
</svg>
