<svg width="24" height="24" viewBox="0 0 24 24" fill="#fe9236" xmlns="http://www.w3.org/2000/svg">
<g clip-path="url(#clip0_51_58)">
<g mask="url(#mask0_51_58)">
<path d="M8.25 2C7.0165 2 6 3.0165 6 4.25V19.75C6 20.984 7.0165 22 8.25 22H15.75C16.984 22 18 20.984 18 19.75V4.25C18 3.0165 16.984 2 15.75 2H8.25ZM8.25 3.5H15.75C16.173 3.5 16.5 3.827 16.5 4.25V19.75C16.5 20.173 16.173 20.5 15.75 20.5H8.25C7.8265 20.5 7.5 20.173 7.5 19.75V4.25C7.5 3.827 7.8265 3.5 8.25 3.5ZM9.7385 4.9895C9.53976 4.99253 9.35034 5.07433 9.21187 5.21692C9.0734 5.35952 8.99719 5.55125 9 5.75V7.75C8.99809 7.88285 9.03151 8.01383 9.09684 8.12953C9.16217 8.24522 9.25706 8.34149 9.37181 8.40848C9.48655 8.47546 9.61703 8.51076 9.7499 8.51077C9.88277 8.51077 10.0133 8.47548 10.128 8.4085C10.2428 8.34154 10.3377 8.24528 10.4031 8.12957C10.4684 8.01387 10.5019 7.88288 10.5 7.75V5.75C10.5014 5.64965 10.4827 5.55004 10.4449 5.45707C10.4071 5.36409 10.3511 5.27965 10.2801 5.20873C10.209 5.13782 10.1245 5.08187 10.0315 5.04421C9.93848 5.00656 9.83884 4.98795 9.7385 4.9895Z" fill="#fe9236"/>
</g>
</g>
<defs>
<clipPath id="clip0_51_58">
<rect width="24" height="24" fill="#fe9236"/>
</clipPath>
</defs>
</svg>
