<svg width="208" height="208" viewBox="0 0 208 208" fill="none" xmlns="http://www.w3.org/2000/svg">
<rect y="1" width="208" height="207" rx="20" fill="#112531"/>
<path d="M137 96.1046H117.319C117.179 94.5741 116.807 93.1858 116.202 91.9396C115.62 90.6934 114.806 89.6222 113.759 88.7258C112.736 87.8075 111.491 87.1079 110.026 86.6269C108.56 86.1241 106.897 85.8726 105.035 85.8726C101.778 85.8726 99.0217 86.616 96.7651 88.1027C94.5318 89.5894 92.8335 91.721 91.6703 94.4976C90.5304 97.2742 89.9604 100.608 89.9604 104.5C89.9604 108.61 90.542 112.054 91.7052 114.83C92.8917 117.585 94.6016 119.662 96.8349 121.061C99.0682 122.439 101.755 123.127 104.896 123.127C106.687 123.127 108.292 122.92 109.711 122.504C111.131 122.067 112.364 121.444 113.41 120.635C114.457 119.826 115.306 118.853 115.958 117.716C116.632 116.558 117.086 115.257 117.319 113.814L137 113.945C136.767 116.787 135.918 119.684 134.453 122.635C132.987 125.565 130.905 128.276 128.206 130.769C125.531 133.239 122.216 135.229 118.261 136.737C114.306 138.246 109.711 139 104.477 139C97.9167 139 92.0309 137.677 86.8198 135.032C81.6319 132.386 77.5259 128.495 74.5016 123.357C71.5005 118.219 70 111.933 70 104.5C70 97.0228 71.5354 90.7262 74.6063 85.6103C77.6771 80.4724 81.8181 76.5917 87.0292 73.9682C92.2403 71.3227 98.0562 70 104.477 70C108.99 70 113.143 70.5794 116.935 71.7381C120.727 72.8969 124.054 74.5913 126.915 76.8213C129.777 79.0295 132.08 81.7514 133.824 84.9872C135.569 88.2229 136.628 91.9287 137 96.1046Z" fill="white"/>
<path d="M50 87.5V51H158.5V87.5" stroke="white" stroke-width="12" stroke-linecap="round"/>
<path d="M158.5 121V157.5H50V121" stroke="white" stroke-width="12" stroke-linecap="round"/>
</svg>
