<svg width="24" height="24" viewBox="0 0 24 24" fill="none" xmlns="http://www.w3.org/2000/svg">
<path opacity="0.35" d="M12 20C16.4183 20 20 16.4183 20 12C20 7.58172 16.4183 4 12 4C7.58172 4 4 7.58172 4 12C4 16.4183 7.58172 20 12 20Z" fill="#fe9236"/>
<path d="M14.6869 13.272L13.7229 11.873C13.5769 11.684 13.4829 11.461 13.4499 11.224L12.9999 8C12.9999 7.448 12.5519 7 11.9999 7C11.4479 7 10.9999 7.448 10.9999 8L10.6029 11.509C10.5389 12.075 10.7609 12.636 11.1959 13.004L13.2729 14.687C13.6639 15.078 14.2969 15.078 14.6869 14.687C15.0769 14.296 15.0769 13.663 14.6869 13.272Z" fill="#fe9236"/>
<path d="M12 2C6.477 2 2 6.477 2 12C2 17.523 6.477 22 12 22C17.523 22 22 17.523 22 12C22 6.477 17.523 2 12 2ZM12 19C8.134 19 5 15.866 5 12C5 8.134 8.134 5 12 5C15.866 5 19 8.134 19 12C19 15.866 15.866 19 12 19Z" fill="#fe9236"/>
</svg>
