<svg width="24" height="24" viewBox="0 0 24 24" fill="none" xmlns="http://www.w3.org/2000/svg">
<path opacity="0.35" d="M1.448 14.5441L3.17 7.2071C3.424 6.1261 4.275 5.4741 5.173 4.8981C7.209 3.5901 8.901 2.0791 10.368 2.0791C12.809 2.0791 14.402 4.1271 15.524 5.6561C16.957 7.6071 20.945 13.3771 21.452 13.8981C22.088 14.5511 22.087 15.7271 21.41 16.5551C20.525 17.6371 19.251 17.2341 19.251 17.2341C19.251 17.2341 19.263 18.2051 18.454 18.8891C17.625 19.5901 16.635 19.3561 16.635 19.3561C16.635 19.3561 16.575 20.1521 15.716 20.6941C14.838 21.2481 13.704 20.5961 13.704 20.5961C13.704 20.5961 13.666 21.4191 13.145 21.7571C12.558 22.1381 11.838 22.0431 11.301 21.6671C10.611 21.1831 1.448 14.5441 1.448 14.5441Z" fill="#E64E36"/>
<path d="M22.7939 11.748C22.1289 9.89 21.3379 6.653 20.9369 5.42C20.5359 4.187 20.0449 3.758 18.6269 3.331C18.2529 3.219 14.7329 2 13.6109 2C13.2439 2 12.6319 2.127 11.6539 2.44C11.0279 2.64 9.89286 2.948 9.50186 3.41C9.13886 3.839 8.11786 6.038 7.50686 7.391C7.21086 8.045 7.56786 8.829 8.23686 8.976C9.06286 9.157 10.0349 9.043 10.9219 8.234C11.5999 7.615 12.4779 6.857 13.0469 6.37C13.3819 6.081 13.8599 6.1 14.1779 6.41C14.6539 6.874 15.2999 7.508 15.5299 7.753C16.0989 8.357 21.0899 13.484 21.4339 13.891C21.8109 14.338 21.9169 14.846 21.9169 14.846C21.9169 14.846 23.5659 13.904 22.7939 11.748Z" fill="#E64E36"/>
<path d="M10.957 21.493C11.272 21.178 11.178 21.272 11.493 20.957C12.169 20.281 12.169 19.184 11.493 18.507C10.817 17.831 9.72 17.831 9.043 18.507C8.728 18.822 8.822 18.728 8.507 19.043C7.831 19.719 7.831 20.816 8.507 21.493C9.184 22.169 10.28 22.169 10.957 21.493Z" fill="#E64E36"/>
<path d="M6.32394 18.0881C6.63894 17.7731 6.54494 17.8671 6.85994 17.5521C7.53594 16.8761 7.53594 15.7791 6.85994 15.1021C6.18394 14.4251 5.08694 14.4261 4.40994 15.1021C4.09494 15.4171 4.18894 15.3231 3.87394 15.6381C3.19794 16.3141 3.19794 17.4111 3.87394 18.0881C4.55094 18.7651 5.64694 18.7651 6.32394 18.0881Z" fill="#E64E36"/>
<path d="M3.88889 16.216C4.20389 15.901 4.10989 15.995 4.42489 15.68C5.10089 15.004 5.10089 13.907 4.42489 13.23C3.74889 12.553 2.65189 12.554 1.97488 13.23C1.65988 13.545 1.75388 13.451 1.43888 13.766C0.762885 14.442 0.762885 15.539 1.43888 16.216C2.11589 16.893 3.21189 16.893 3.88889 16.216Z" fill="#E64E36"/>
<path d="M8.54684 20.0831C8.86184 19.7681 9.07884 19.5511 9.39385 19.2361C10.0698 18.5601 10.0698 17.4631 9.39385 16.7861C8.71784 16.1101 7.62084 16.1101 6.94384 16.7861C6.62884 17.1011 6.41184 17.3181 6.09684 17.6331C5.42084 18.3091 5.42084 19.4061 6.09684 20.0831C6.77384 20.7601 7.87084 20.7601 8.54684 20.0831Z" fill="#E64E36"/>
</svg>
