<svg width="24" height="24" viewBox="0 0 24 24" fill="none" xmlns="http://www.w3.org/2000/svg">
<path opacity="0.35" d="M18 21H11C9.895 21 9 20.105 9 19V5C9 3.895 9.895 3 11 3H18C19.657 3 21 4.343 21 6V18C21 19.657 19.657 21 18 21Z" fill="#FE9236"/>
<path d="M5 3V2C5 1.448 4.552 1 4 1C3.448 1 3 1.448 3 2V19C3 20.105 3.895 21 5 21H7C8.105 21 9 20.105 9 19V5C9 3.895 8.105 3 7 3H5Z" fill="#FE9236"/>
<path d="M13 18C13.5523 18 14 17.5523 14 17C14 16.4477 13.5523 16 13 16C12.4477 16 12 16.4477 12 17C12 17.5523 12.4477 18 13 18Z" fill="#FE9236"/>
<path d="M17 18C17.5523 18 18 17.5523 18 17C18 16.4477 17.5523 16 17 16C16.4477 16 16 16.4477 16 17C16 17.5523 16.4477 18 17 18Z" fill="#FE9236"/>
<path d="M13 14C13.5523 14 14 13.5523 14 13C14 12.4477 13.5523 12 13 12C12.4477 12 12 12.4477 12 13C12 13.5523 12.4477 14 13 14Z" fill="#FE9236"/>
<path d="M17 14C17.5523 14 18 13.5523 18 13C18 12.4477 17.5523 12 17 12C16.4477 12 16 12.4477 16 13C16 13.5523 16.4477 14 17 14Z" fill="#FE9236"/>
<path d="M17.5 6H12.5C11.672 6 11 6.672 11 7.5C11 8.328 11.672 9 12.5 9H17.5C18.328 9 19 8.328 19 7.5C19 6.672 18.328 6 17.5 6Z" fill="#FE9236"/>
</svg>
