<svg width="24" height="24" viewBox="0 0 24 24" fill="none" xmlns="http://www.w3.org/2000/svg">
<g clip-path="url(#clip0_36_53)">
<path d="M16 24C15.744 24 15.488 23.902 15.293 23.707C14.902 23.316 14.902 22.684 15.293 22.293L22.293 15.293C22.684 14.902 23.316 14.902 23.707 15.293C24.098 15.684 24.098 16.316 23.707 16.707L16.707 23.707C16.512 23.902 16.256 24 16 24Z" fill="#E64E36"/>
<path d="M22.5 24C23.3284 24 24 23.3284 24 22.5C24 21.6716 23.3284 21 22.5 21C21.6716 21 21 21.6716 21 22.5C21 23.3284 21.6716 24 22.5 24Z" fill="#E64E36"/>
<path d="M16.5 18C17.3284 18 18 17.3284 18 16.5C18 15.6716 17.3284 15 16.5 15C15.6716 15 15 15.6716 15 16.5C15 17.3284 15.6716 18 16.5 18Z" fill="#E64E36"/>
<path opacity="0.35" d="M18 2H13.828C12.76 2 11.756 2.416 11 3.171L3.025 11.146C2.364 11.808 2 12.687 2 13.621C2 14.556 2.364 15.435 3.025 16.096L7.904 20.975C8.565 21.636 9.444 22 10.379 22C11.314 22 12.193 21.636 12.854 20.975L20.828 13C21.584 12.245 22 11.24 22 10.172V6C22 3.794 20.206 2 18 2ZM17 9C15.895 9 15 8.104 15 7C15 5.895 15.895 5 17 5C18.105 5 19 5.895 19 7C19 8.104 18.105 9 17 9Z" fill="#E64E36"/>
</g>
<defs>
<clipPath id="clip0_36_53">
<rect width="24" height="24" fill="white"/>
</clipPath>
</defs>
</svg>
