<svg width="24" height="24" viewBox="0 0 24 24" fill="none" xmlns="http://www.w3.org/2000/svg">
<path d="M13.5 3H10.5C10.5 2.172 11.172 1.5 12 1.5C12.828 1.5 13.5 2.172 13.5 3Z" fill="#E64E36"/>
<path d="M7.74807 17L6.19307 19.765C5.78707 20.487 6.04307 21.402 6.76507 21.808C7.48507 22.213 8.40207 21.957 8.80707 21.236L11.1901 17H7.74807Z" fill="#E64E36"/>
<path d="M16.2521 17H12.8101L15.1931 21.235C15.4681 21.725 15.9771 22 16.5011 22C16.7501 22 17.0021 21.938 17.2351 21.808C17.9571 21.402 18.2131 20.487 17.8071 19.765L16.2521 17Z" fill="#E64E36"/>
<path opacity="0.35" d="M2 14V6C2 4.343 3.343 3 5 3H19C20.657 3 22 4.343 22 6V14C22 15.657 20.657 17 19 17H5C3.343 17 2 15.657 2 14Z" fill="#E64E36"/>
<path d="M13 13C12.744 13 12.488 12.902 12.293 12.707L10 10.414L7.70701 12.707C7.31601 13.098 6.68401 13.098 6.29301 12.707C5.90201 12.316 5.90201 11.684 6.29301 11.293L9.29301 8.29301C9.68401 7.90201 10.316 7.90201 10.707 8.29301L13 10.586L16.293 7.29301C16.684 6.90201 17.316 6.90201 17.707 7.29301C18.098 7.68401 18.098 8.31601 17.707 8.70701L13.707 12.707C13.512 12.902 13.256 13 13 13Z" fill="#E64E36"/>
</svg>
