<svg width="24" height="24" viewBox="0 0 24 24" fill="none" xmlns="http://www.w3.org/2000/svg">
<path opacity="0.35" d="M15 15H9V21H15V15Z" fill="#E64E36"/>
<path opacity="0.35" d="M12 12C14.7614 12 17 9.76143 17 7C17 4.23858 14.7614 2 12 2C9.23858 2 7 4.23858 7 7C7 9.76143 9.23858 12 12 12Z" fill="#E64E36"/>
<path d="M18 15C17.854 15 15.839 15 13.5 15L12.656 16.406L13.909 21C16.069 21 17.863 21 18 21C19.657 21 21 19.657 21 18C21 16.343 19.657 15 18 15Z" fill="#E64E36"/>
<path d="M11.344 16.406L10.5 15C8.161 15 6.146 15 6 15C4.343 15 3 16.343 3 18C3 19.657 4.343 21 6 21C6.137 21 7.931 21 10.091 21L11.344 16.406Z" fill="#E64E36"/>
</svg>
