<svg width="24" height="24" viewBox="0 0 24 24" fill="none" xmlns="http://www.w3.org/2000/svg">
<path opacity="0.35" d="M19 7C20.1046 7 21 6.10457 21 5C21 3.89543 20.1046 3 19 3C17.8954 3 17 3.89543 17 5C17 6.10457 17.8954 7 19 7Z" fill="#E64E36"/>
<path opacity="0.35" d="M5 7C6.10457 7 7 6.10457 7 5C7 3.89543 6.10457 3 5 3C3.89543 3 3 3.89543 3 5C3 6.10457 3.89543 7 5 7Z" fill="#E64E36"/>
<path opacity="0.35" d="M12 7C13.1046 7 14 6.10457 14 5C14 3.89543 13.1046 3 12 3C10.8954 3 10 3.89543 10 5C10 6.10457 10.8954 7 12 7Z" fill="#E64E36"/>
<path opacity="0.35" d="M17 14V12H7V14H17Z" fill="#E64E36"/>
<path d="M15 11C15 9.343 13.657 8 12 8C10.343 8 9 9.343 9 11C9 11.549 9 12 9 12H15C15 12 15 11.549 15 11Z" fill="#E64E36"/>
<path d="M15 22C14.448 22 14 21.553 14 21V18.002C14 17.467 14.208 16.965 14.587 16.587C14.965 16.21 15.466 16.002 16 16.002C16.001 16.002 16.002 16.002 16.004 16.002L19.002 16.008C19.554 16.009 20.001 16.457 20 17.01C19.999 17.562 19.551 18.008 19 18.008C19 18.008 18.999 18.008 18.998 18.008L16 18.002V21C16 21.553 15.552 22 15 22Z" fill="#E64E36"/>
<path d="M19.5 8C18.119 8 17 9.119 17 10.5C17 10.958 17 15.524 17 15.524L15.137 16.191L16 21L16.243 18.37L19 18C20.657 18 22 16.657 22 15C22 15 22 10.958 22 10.5C22 9.119 20.881 8 19.5 8Z" fill="#E64E36"/>
<path d="M9 22C9.552 22 10 21.553 10 21V18.002C10 17.467 9.792 16.965 9.413 16.587C9.035 16.21 8.534 16.002 8 16.002C8 16.002 7.998 16.002 7.996 16.002L4.998 16.008C4.446 16.009 3.999 16.457 4 17.01C4.001 17.562 4.449 18.008 5 18.008H5.002L8 18.002V21C8 21.553 8.448 22 9 22Z" fill="#E64E36"/>
<path d="M4.5 8C5.881 8 7 9.119 7 10.5C7 10.958 7 15.524 7 15.524L8.863 16.191L8 21L7.757 18.37L5 18C3.343 18 2 16.657 2 15C2 15 2 10.958 2 10.5C2 9.119 3.119 8 4.5 8Z" fill="#E64E36"/>
</svg>
