<svg width="24" height="24" viewBox="0 0 24 24" fill="none" xmlns="http://www.w3.org/2000/svg">
<path opacity="0.35" d="M22.877 12.33C23.184 14.418 22.903 16.414 22.182 18.175C21.605 19.583 20.044 20.305 18.582 19.884C16.618 19.319 14.376 19 12 19C9.624 19 7.382 19.319 5.418 19.884C3.96 20.303 2.399 19.589 1.823 18.185C1.294 16.898 1 15.484 1 14C1 7.50403 6.616 2.33203 13.263 3.07003C18.145 3.61203 22.162 7.47003 22.877 12.33Z" fill="#FE9236"/>
<path d="M13.5 3.11V5.5C13.5 6.33 12.83 7 12 7C11.17 7 10.5 6.33 10.5 5.5V3.11C10.99 3.03 11.49 3 12 3C12.51 3 13.01 3.03 13.5 3.11Z" fill="#FE9236"/>
<path d="M7.04998 9.04998C6.45998 9.63998 5.51998 9.63998 4.92998 9.04998L3.22998 7.34998C3.83998 6.54998 4.54998 5.83998 5.34998 5.22998L7.04998 6.92998C7.63998 7.51998 7.63998 8.45998 7.04998 9.04998Z" fill="#FE9236"/>
<path d="M5 14C5 14.83 4.33 15.5 3.5 15.5H1.11C1.03 15.01 1 14.51 1 14C1 13.49 1.03 12.99 1.11 12.5H3.5C4.33 12.5 5 13.17 5 14Z" fill="#FE9236"/>
<path d="M20.7701 7.34998L19.0701 9.04998C18.4801 9.63998 17.5401 9.63998 16.9501 9.04998C16.3601 8.45998 16.3601 7.51998 16.9501 6.92998L18.6501 5.22998C19.4501 5.83998 20.1601 6.54998 20.7701 7.34998Z" fill="#FE9236"/>
<path d="M23 14C23 14.51 22.97 15.01 22.89 15.5H20.5C19.67 15.5 19 14.83 19 14C19 13.17 19.67 12.5 20.5 12.5H22.89C22.97 12.99 23 13.49 23 14Z" fill="#FE9236"/>
<path d="M10.114 14.9421L8.20699 11.7211C7.91499 11.2281 8.07799 10.5911 8.57099 10.2991C8.89499 10.1071 9.28299 10.1131 9.59299 10.2791L12.886 12.0581C13.894 12.6031 14.27 13.8621 13.725 14.8711C13.18 15.8791 11.921 16.2551 10.912 15.7101C10.572 15.5261 10.299 15.2521 10.114 14.9421Z" fill="#FE9236"/>
</svg>
