<svg width="24" height="24" viewBox="0 0 24 24" fill="none" xmlns="http://www.w3.org/2000/svg">
<path fill-rule="evenodd" clip-rule="evenodd" d="M22.6881 17.6881L19.3621 14.3621C19.5371 15.3571 19.2031 16.5251 18.3641 17.3641C17.4261 18.3021 16.0751 18.6141 15.0161 18.2821C14.8311 18.6361 14.5571 18.9571 14.2241 19.2241L17.6881 22.6881C18.2721 23.2721 19.2711 22.9961 19.4721 22.1941L19.7901 20.9211C19.9291 20.3641 20.3641 19.9291 20.9211 19.7901L22.1941 19.4721C22.9961 19.2711 23.2721 18.2721 22.6881 17.6881Z" fill="#fe9236"/>
<path fill-rule="evenodd" clip-rule="evenodd" d="M1.312 17.6881L4.638 14.3621C4.463 15.3571 4.797 16.5251 5.636 17.3641C6.574 18.3021 7.925 18.6141 8.984 18.2821C9.169 18.6361 9.443 18.9571 9.776 19.2241L6.312 22.6881C5.728 23.2721 4.729 22.9961 4.528 22.1941L4.21 20.9211C4.071 20.3641 3.636 19.9291 3.079 19.7901L1.806 19.4721C1.004 19.2711 0.728001 18.2721 1.312 17.6881Z" fill="#fe9236"/>
<path opacity="0.35" fill-rule="evenodd" clip-rule="evenodd" d="M8.984 3.718C9.498 2.735 10.674 2 12 2C13.326 2 14.502 2.735 15.016 3.718C16.074 3.386 17.426 3.698 18.364 4.636C19.302 5.574 19.614 6.925 19.282 7.984C20.265 8.498 21 9.674 21 11C21 12.326 20.265 13.502 19.282 14.016C19.614 15.074 19.302 16.426 18.364 17.364C17.426 18.302 16.075 18.614 15.016 18.282C14.502 19.265 13.326 20 12 20C10.674 20 9.498 19.265 8.984 18.282C7.926 18.614 6.574 18.302 5.636 17.364C4.698 16.426 4.386 15.075 4.718 14.016C3.735 13.502 3 12.326 3 11C3 9.674 3.735 8.498 4.718 7.984C4.386 6.926 4.698 5.574 5.636 4.636C6.574 3.698 7.925 3.386 8.984 3.718Z" fill="#fe9236"/>
<path d="M11 15C10.744 15 10.488 14.902 10.293 14.707L7.29301 11.707C6.90201 11.316 6.90201 10.684 7.29301 10.293C7.68401 9.90201 8.31601 9.90201 8.70701 10.293L11 12.586L15.293 8.29301C15.684 7.90201 16.316 7.90201 16.707 8.29301C17.098 8.68401 17.098 9.31601 16.707 9.70701L11.707 14.707C11.512 14.902 11.256 15 11 15Z" fill="#fe9236"/>
</svg>
