<svg width="24" height="24" viewBox="0 0 24 24" fill="none" xmlns="http://www.w3.org/2000/svg">
<g clip-path="url(#clip0_36_19)">
<path d="M18.5 6C15.468 6 13 8.467 13 11.5C13 12.401 13.222 13.249 13.607 14H10.393C10.778 13.249 11 12.401 11 11.5C11 8.467 8.532 6 5.5 6C2.468 6 0 8.467 0 11.5C0 14.533 2.468 17 5.5 17H18.5C21.532 17 24 14.533 24 11.5C24 8.467 21.532 6 18.5 6ZM3 11.5C3 10.122 4.121 9 5.5 9C6.879 9 8 10.122 8 11.5C8 12.878 6.879 14 5.5 14C4.121 14 3 12.878 3 11.5ZM18.5 14C17.121 14 16 12.878 16 11.5C16 10.122 17.121 9 18.5 9C19.879 9 21 10.122 21 11.5C21 12.878 19.879 14 18.5 14Z" fill="#fe9236"/>
<path opacity="0.35" d="M18.5 16C20.9853 16 23 13.9853 23 11.5C23 9.01472 20.9853 7 18.5 7C16.0147 7 14 9.01472 14 11.5C14 13.9853 16.0147 16 18.5 16Z" fill="#fe9236"/>
<path opacity="0.35" d="M5.5 16C7.98528 16 10 13.9853 10 11.5C10 9.01472 7.98528 7 5.5 7C3.01472 7 1 9.01472 1 11.5C1 13.9853 3.01472 16 5.5 16Z" fill="#fe9236"/>
</g>
<defs>
<clipPath id="clip0_36_19">
<rect width="24" height="24" fill="white"/>
</clipPath>
</defs>
</svg>
