<svg width="24" height="24" viewBox="0 0 24 24" fill="none" xmlns="http://www.w3.org/2000/svg">
<path opacity="0.35" d="M17 21H7C5.343 21 4 19.657 4 18V6C4 4.343 5.343 3 7 3H15L20 9V18C20 19.657 18.657 21 17 21Z" fill="#fe9236"/>
<path d="M15 7V3L20 9H17C15.895 9 15 8.105 15 7Z" fill="#fe9236"/>
<path d="M12 10C11.172 10 10.5 10.672 10.5 11.5V15.5C10.5 16.328 11.172 17 12 17C12.828 17 13.5 16.328 13.5 15.5V11.5C13.5 10.672 12.828 10 12 10Z" fill="#fe9236"/>
<path d="M16.5 11C15.672 11 15 11.672 15 12.5V15.5C15 16.328 15.672 17 16.5 17C17.328 17 18 16.328 18 15.5V12.5C18 11.672 17.328 11 16.5 11Z" fill="#fe9236"/>
<path d="M7.5 13C6.672 13 6 13.672 6 14.5V15.5C6 16.328 6.672 17 7.5 17C8.328 17 9 16.328 9 15.5V14.5C9 13.672 8.328 13 7.5 13Z" fill="#fe9236"/>
</svg>
