<svg width="24" height="24" viewBox="0 0 24 24" fill="none" xmlns="http://www.w3.org/2000/svg">
<path opacity="0.35" d="M21.427 12.015L19.697 9.909C19.215 5.505 16 2 11 2C5.36295 2 2.02295 5.928 2.02295 11C2.02295 14.638 3.90995 16.297 4.67895 18.832C5.06695 20.11 6.22195 21 7.55695 21H16.185C17.614 21 18.845 19.991 19.126 18.59L19.65 15.976L20.774 15.365C21.995 14.7 22.309 13.089 21.427 12.015Z" fill="#E64E36"/>
<path d="M10 16C11.6569 16 13 14.6569 13 13C13 11.3431 11.6569 10 10 10C8.34315 10 7 11.3431 7 13C7 14.6569 8.34315 16 10 16Z" fill="#E64E36"/>
<path d="M18 20C19.1046 20 20 19.1046 20 18C20 16.8954 19.1046 16 18 16C16.8954 16 16 16.8954 16 18C16 19.1046 16.8954 20 18 20Z" fill="#E64E36"/>
<path d="M10 1C9.448 1 9 1.448 9 2V11H11V2C11 1.448 10.552 1 10 1Z" fill="#E64E36"/>
<path d="M18.119 19H15.828C15.027 19 14.273 18.688 13.707 18.121L9.29301 13.707C8.90201 13.316 8.90201 12.684 9.29301 12.293C9.68401 11.902 10.316 11.902 10.707 12.293L15.121 16.707C15.308 16.894 15.565 17 15.828 17H18.119C18.672 17 19.119 17.447 19.119 18C19.119 18.553 18.672 19 18.119 19Z" fill="#E64E36"/>
</svg>
