<svg width="24" height="24" viewBox="0 0 24 24" fill="none" xmlns="http://www.w3.org/2000/svg">
<path opacity="0.35" d="M8 16H3V6C3 4.343 4.343 3 6 3H18C19.657 3 21 4.343 21 6V16H8Z" fill="#E64E36"/>
<path d="M6.5 7C7.88071 7 9 5.88071 9 4.5C9 3.11929 7.88071 2 6.5 2C5.11929 2 4 3.11929 4 4.5C4 5.88071 5.11929 7 6.5 7Z" fill="#E64E36"/>
<path d="M13.929 8H5C3.895 8 3 8.895 3 10V20.89C3 21.438 3.394 21.935 3.94 21.993C4.527 22.056 5.041 21.633 5.105 21.06L5.631 16.33C5.651 16.143 5.81 16 6 16C6.19 16 6.349 16.143 6.37 16.331L6.89 21.013C6.948 21.533 7.358 21.967 7.88 21.998C8.493 22.034 9 21.549 9 20.945V11.309C9 11.05 9.191 10.83 9.447 10.793L14.031 10.138C14.549 10.064 14.973 9.646 14.998 9.124C15.028 8.508 14.538 8 13.929 8Z" fill="#E64E36"/>
<path d="M17 15H15C14.448 15 14 14.552 14 14C14 13.448 14.448 13 15 13H17C17.552 13 18 13.448 18 14C18 14.552 17.552 15 17 15Z" fill="#E64E36"/>
<path d="M21 17H8V15H21C21.552 15 22 15.448 22 16C22 16.552 21.552 17 21 17Z" fill="#E64E36"/>
</svg>
