<svg width="24" height="24" viewBox="0 0 24 24" fill="none" xmlns="http://www.w3.org/2000/svg">
<path opacity="0.35" d="M6 3H18C19.657 3 21 4.343 21 6V18C21 19.657 19.657 21 18 21H6C4.343 21 3 19.657 3 18V6C3 4.343 4.343 3 6 3Z" fill="#fe9236"/>
<path d="M10 10.5791V20.5791C10 21.6841 10.895 22.5791 12 22.5791C13.105 22.5791 14 21.6841 14 20.5791V10.5791H10Z" fill="#fe9236"/>
<path d="M16.131 12.0001C16.902 12.0001 17.29 11.0701 16.747 10.5221L12.891 6.62906C12.4 6.13406 11.6 6.13406 11.109 6.62906L7.253 10.5221C6.71 11.0701 7.098 12.0001 7.869 12.0001H16.131Z" fill="#fe9236"/>
</svg>
