<svg viewBox="0 0 1244 1238" fill="none" xmlns="http://www.w3.org/2000/svg">
<path d="M875.913 648.151C875.913 781.531 767.261 889.665 633.222 889.665C499.183 889.665 390.531 781.531 390.531 648.151C390.531 514.771 499.183 406.637 633.222 406.637C767.261 406.637 875.913 514.771 875.913 648.151Z" stroke="#fe7aa9" stroke-width="2"/>
<path d="M964.414 634.506C964.414 822.694 811.116 975.259 622.003 975.259C432.891 975.259 279.593 822.694 279.593 634.506C279.593 446.318 432.891 293.754 622.003 293.754C811.116 293.754 964.414 446.318 964.414 634.506Z" stroke="#fe7aa9" stroke-width="2"/>
<path d="M1038.58 610.937C1038.58 839.888 852.077 1025.5 622.003 1025.5C391.929 1025.5 205.426 839.888 205.426 610.937C205.426 381.986 391.929 196.376 622.003 196.376C852.077 196.376 1038.58 381.986 1038.58 610.937Z" stroke="#fe7aa9" stroke-width="2"/>
<path d="M1164.48 623.032C1164.48 908.332 932.072 1139.62 645.375 1139.62C358.679 1139.62 126.273 908.332 126.273 623.032C126.273 337.731 358.679 106.441 645.375 106.441C932.072 106.441 1164.48 337.731 1164.48 623.032Z" stroke="#fe7aa9" stroke-width="2"/>
<path d="M1243.01 619C1243.01 960.307 964.979 1237 622.003 1237C279.028 1237 1 960.307 1 619C1 277.693 279.028 1 622.003 1C964.979 1 1243.01 277.693 1243.01 619Z" stroke="#fe7aa9" stroke-width="2"/>
</svg>
