<svg version="1.1" xmlns="http://www.w3.org/2000/svg" xmlns:xlink="http://www.w3.org/1999/xlink" width="48px" height="48px" viewBox="0,0,256,256"><g fill="#fe9236" fill-rule="nonzero" stroke="none" stroke-width="1" stroke-linecap="butt" stroke-linejoin="miter" stroke-miterlimit="10" stroke-dasharray="" stroke-dashoffset="0" font-family="none" font-weight="none" font-size="none" text-anchor="none" style="mix-blend-mode: normal"><g transform="scale(5.33333,5.33333)"><path d="M24.11133,3.00586c-1.07748,-0.00675 -2.15724,0.36957 -3.00977,1.13086l-1.00586,0.89648l-1.31641,-0.29102c-2.23163,-0.49509 -4.50439,0.79737 -5.2207,2.96875l-0.42187,1.28125l-1.28711,0.4043c-2.18104,0.68711 -3.50397,2.94379 -3.03906,5.18164l0.27539,1.32031l-0.91016,0.99414c-0.00065,0 -0.0013,0 -0.00195,0c-1.54281,1.68633 -1.5597,4.3008 -0.03711,6.00586l0.89648,1.00586l-0.29102,1.31641c-0.34459,1.55322 0.19057,3.11354 1.27148,4.16797l-5.57422,5.57422c-0.37103,0.37093 -0.52132,0.90875 -0.39633,1.41829c0.12499,0.50954 0.50709,0.91676 1.00765,1.0739l5.87109,1.84375l1.61328,5.61523c0.14679,0.51022 0.55233,0.90486 1.06637,1.03768c0.51404,0.13282 1.05999,-0.01595 1.43558,-0.39119l8.43359,-8.43359c0.04994,-0.05005 0.09628,-0.10357 0.13867,-0.16016c0.24997,0.01703 0.49856,0.01266 0.74805,-0.01172l8.60547,8.60547c0.37559,0.37525 0.92154,0.52402 1.43558,0.39119c0.51404,-0.13282 0.91958,-0.52746 1.06637,-1.03768l1.61328,-5.61523l5.87109,-1.84375c0.50056,-0.15713 0.88267,-0.56436 1.00765,-1.0739c0.12499,-0.50954 -0.0253,-1.04736 -0.39633,-1.41829l-5.54102,-5.54102c0.9908,-1.0371 1.47796,-2.51723 1.16992,-4l-0.27539,-1.32031l0.91211,-0.99414c1.54281,-1.68633 1.5597,-4.3008 0.03711,-6.00586l-0.89648,-1.00586l0.29102,-1.31445c0.49509,-2.23163 -0.79737,-4.50634 -2.96875,-5.22266l-1.28125,-0.42187l-0.4043,-1.28516c-0.68647,-2.18205 -2.94321,-3.50409 -5.18164,-3.03906l-1.32031,0.27539l-0.99414,-0.91211c0,-0.00065 0,-0.0013 0,-0.00195c-0.84317,-0.77141 -1.91861,-1.16121 -2.99609,-1.16797zM24.0918,5.99414c0.35252,0.00225 0.7054,0.13394 0.99023,0.39453l1.55859,1.42969c0.3563,0.32592 0.84771,0.4604 1.32031,0.36133l2.07031,-0.42969c0.75557,-0.15697 1.47941,0.266 1.71094,1.00195l0.63672,2.01953c0.14482,0.46058 0.50245,0.8233 0.96094,0.97461l2.00977,0.66211c0.73262,0.24169 1.14738,0.97029 0.98047,1.72266l-0.45898,2.06641c-0.10456,0.47132 0.0241,0.96415 0.3457,1.32422l1.41016,1.57813c0.51341,0.57494 0.50751,1.41275 -0.01367,1.98242l-1.42969,1.56055c-0.3253,0.35586 -0.45974,0.84638 -0.36133,1.31836l0.42969,2.07227c0.15432,0.74779 -0.2598,1.46297 -0.98242,1.70117c-0.04828,0.01324 -0.09586,0.02888 -0.14258,0.04688l-1.89648,0.59766c-0.46058,0.14482 -0.8233,0.50245 -0.97461,0.96094l-0.66211,2.00977c-0.24169,0.73262 -0.97029,1.14738 -1.72266,0.98047l-2.06641,-0.45898c-0.4707,-0.10389 -0.96265,0.02473 -1.32227,0.3457l-1.58008,1.4082c-0.00065,0 -0.0013,0 -0.00195,0c-0.57426,0.5128 -1.41084,0.50762 -1.98047,-0.01172l-0.00195,-0.00195l-1.56055,-1.42773c-0.3555,-0.326 -0.84606,-0.46117 -1.31836,-0.36328l-2.07031,0.43164c-0.75557,0.15697 -1.47941,-0.26796 -1.71094,-1.00391l-0.63672,-2.01953c-0.14535,-0.45983 -0.5029,-0.82174 -0.96094,-0.97266l-2.00976,-0.66406c-0.73262,-0.24169 -1.14738,-0.97029 -0.98047,-1.72266l0.45898,-2.06641c0.10389,-0.4707 -0.02473,-0.96265 -0.3457,-1.32227l-1.4082,-1.57812c0,-0.00065 0,-0.0013 0,-0.00195c-0.5128,-0.57426 -0.50762,-1.41084 0.01172,-1.98047l0.00195,-0.00195l1.42773,-1.56055c0.326,-0.3555 0.46117,-0.84606 0.36328,-1.31836l-0.43164,-2.07031v-0.00195c-0.15578,-0.75483 0.26862,-1.47766 1.00391,-1.70899l2.01953,-0.63672c0.45983,-0.14535 0.82174,-0.5029 0.97266,-0.96094l0.66406,-2.00977c0.24169,-0.73262 0.97029,-1.14738 1.72266,-0.98047l2.06641,0.45898c0.4707,0.10389 0.96265,-0.02473 1.32227,-0.3457l1.57813,-1.4082c0.00065,0 0.0013,0 0.00195,0c0.28747,-0.25671 0.63967,-0.38311 0.99219,-0.38086zM30.07617,15.88086c-0.38956,0.01135 -0.75941,0.17386 -1.03125,0.45313l-6.71094,6.71094l-3.37891,-3.37891c-0.37623,-0.39185 -0.9349,-0.5497 -1.46056,-0.41266c-0.52566,0.13704 -0.93616,0.54754 -1.0732,1.0732c-0.13704,0.52566 0.02081,1.08433 0.41266,1.46056l4.43945,4.44141c0.28139,0.2818 0.66329,0.44014 1.06152,0.44014c0.39824,0 0.78013,-0.15835 1.06152,-0.44014l7.76953,-7.77344c0.4429,-0.43135 0.57582,-1.09023 0.33479,-1.65955c-0.24103,-0.56932 -0.80665,-0.93247 -1.42463,-0.91467zM12.83398,30.81055l0.1582,0.05273l0.4043,1.28711c0.68711,2.18104 2.94379,3.50397 5.18164,3.03906l1.32031,-0.27539l0.80469,0.73828l-5.98828,5.98828l-1.13281,-3.94531c-0.13945,-0.48353 -0.51204,-0.86493 -0.99219,-1.01562l-4.28125,-1.34375zM35.24414,30.88867l4.44727,4.44727l-4.28125,1.34375c-0.48014,0.15069 -0.85274,0.53209 -0.99219,1.01562l-1.13281,3.94531l-6.06445,-6.06445l0.68359,-0.60937l1.31641,0.29102c2.23163,0.49509 4.50634,-0.79737 5.22266,-2.96875l0.42188,-1.28125z"></path></g></g></svg>