<svg width="100" height="100" viewBox="0 0 100 100" fill="none" xmlns="http://www.w3.org/2000/svg">
<g clip-path="url(#clip0_6_183)">
<path d="M31.4714 10C13.3014 10.3133 11.4445 22.9128 15.0912 37.3828C14.3845 37.7895 13.2223 39.0804 13.5156 41.3737C14.0623 45.6503 15.9164 46.7329 17.0964 46.8229C17.5464 50.8162 21.8333 55.9233 23.3333 56.6667V63.3333C20 73.3333 0 63.3333 0 90H40C40 78.1733 46.6314 73.0797 52.1614 70.1497C46.9681 68.3297 41.59 68.1033 40 63.3333V56.6667C41.5 55.9233 45.7836 50.8194 46.2369 46.8294C46.5036 45.8861 46.7122 42.5113 46.7122 41.7513C46.7122 37.588 46.6511 28.9828 49.2578 22.2461C48.3478 17.7194 45.969 13.9018 40.8724 13.3984C39.509 11.1418 36.0147 10 31.4714 10ZM73.7435 13.3333C69.9968 13.3333 67.1028 16.6667 67.1028 16.6667C45.6295 16.6667 57.5501 53.1778 51.2435 58.4244C51.2435 58.4244 54.5966 63.3919 66.6666 63.3919V67.6432C63.3333 76.6665 46.6666 73.3333 46.6666 89.9999H100C100 73.3333 83.3333 76.6665 80 67.6432V63.3528C92.13 63.3528 94.9414 58.5481 94.9414 58.5481C88.1514 52.9748 99.9968 13.3333 73.7435 13.3333Z" fill="white"/>
</g>
<defs>
<clipPath id="clip0_6_183">
<rect width="100" height="100" fill="white"/>
</clipPath>
</defs>
</svg>
