<svg version="1.1" xmlns="http://www.w3.org/2000/svg" xmlns:xlink="http://www.w3.org/1999/xlink" width="48px" height="48px" viewBox="0,0,256,256"><g fill="#fe9236" fill-rule="nonzero" stroke="none" stroke-width="1" stroke-linecap="butt" stroke-linejoin="miter" stroke-miterlimit="10" stroke-dasharray="" stroke-dashoffset="0" font-family="none" font-weight="none" font-size="none" text-anchor="none" style="mix-blend-mode: normal"><g transform="scale(5.33333,5.33333)"><path d="M20.5,3c-2.29659,0 -4.1943,1.76662 -4.44922,4h-3.55078c-2.4675,0 -4.5,2.0325 -4.5,4.5v27c0,2.4675 2.0325,4.5 4.5,4.5h23c2.4675,0 4.5,-2.0325 4.5,-4.5v-27c0,-2.4675 -2.0325,-4.5 -4.5,-4.5h-3.55078c-0.25492,-2.23338 -2.15262,-4 -4.44922,-4zM20.5,6h7c0.8465,0 1.5,0.6535 1.5,1.5c0,0.8465 -0.6535,1.5 -1.5,1.5h-7c-0.8465,0 -1.5,-0.6535 -1.5,-1.5c0,-0.8465 0.6535,-1.5 1.5,-1.5zM12.5,10h4.26953c0.81171,1.2019 2.18519,2 3.73047,2h7c1.54528,0 2.91876,-0.7981 3.73047,-2h4.26953c0.8465,0 1.5,0.6535 1.5,1.5v27c0,0.8465 -0.6535,1.5 -1.5,1.5h-23c-0.8465,0 -1.5,-0.6535 -1.5,-1.5v-27c0,-0.8465 0.6535,-1.5 1.5,-1.5zM16.5,16c-0.54095,-0.00765 -1.04412,0.27656 -1.31683,0.74381c-0.27271,0.46725 -0.27271,1.04514 0,1.51238c0.27271,0.46725 0.77588,0.75146 1.31683,0.74381h15c0.54095,0.00765 1.04412,-0.27656 1.31683,-0.74381c0.27271,-0.46725 0.27271,-1.04514 0,-1.51238c-0.27271,-0.46725 -0.77588,-0.75146 -1.31683,-0.74381zM16.5,22c-0.54095,-0.00765 -1.04412,0.27656 -1.31683,0.74381c-0.27271,0.46725 -0.27271,1.04514 0,1.51238c0.27271,0.46725 0.77588,0.75146 1.31683,0.74381h8c0.54095,0.00765 1.04412,-0.27656 1.31683,-0.74381c0.27271,-0.46725 0.27271,-1.04514 0,-1.51238c-0.27271,-0.46725 -0.77588,-0.75146 -1.31683,-0.74381zM32.4707,25.98633c-0.38956,0.01135 -0.75941,0.17386 -1.03125,0.45313l-6.05078,6.05078l-3.95117,-3.16211c-0.54802,-0.43869 -1.32698,-0.43869 -1.875,0l-5,4c-0.64721,0.51777 -0.75214,1.46217 -0.23437,2.10938c0.51777,0.64721 1.46217,0.75214 2.10938,0.23438l4.0625,-3.25l4.0625,3.25c0.59709,0.47743 1.45769,0.42947 1.99805,-0.11133l7,-7c0.4429,-0.43135 0.57582,-1.09023 0.33479,-1.65955c-0.24103,-0.56932 -0.80665,-0.93247 -1.42463,-0.91467z"></path></g></g></svg>