<svg width="100" height="100" viewBox="0 0 100 100" fill="none" xmlns="http://www.w3.org/2000/svg">
<path d="M49.9999 4C30.1484 4 13.9999 20.1484 13.9999 40C13.9999 59.8516 30.1484 76 49.9999 76C69.8515 76 85.9999 59.8516 85.9999 40C85.9999 20.1484 69.8515 4 49.9999 4ZM49.9999 10C51.1015 10 51.9999 10.8984 51.9999 12C51.9999 13.1016 51.1015 14 49.9999 14C48.8984 14 47.9999 13.1016 47.9999 12C47.9999 10.8984 48.8984 10 49.9999 10ZM44.1249 10.5625C45.203 10.3438 46.289 11.0391 46.4999 12.125C46.7109 13.2109 46.0234 14.2813 44.9374 14.5C43.8515 14.7109 42.7812 14.0234 42.5624 12.9375C42.3515 11.8516 43.039 10.7813 44.1249 10.5625ZM55.0624 10.5625C55.3202 10.5078 55.6015 10.5078 55.8749 10.5625C56.9609 10.7813 57.6562 11.8516 57.4374 12.9375C57.2187 14.0234 56.1484 14.7188 55.0624 14.5C53.9765 14.2813 53.2812 13.2109 53.4999 12.125C53.664 11.3125 54.2968 10.7188 55.0624 10.5625ZM39.3124 12.125C40.0937 12.1328 40.8046 12.6094 41.1249 13.375C41.5468 14.3984 41.0859 15.5781 40.0624 16C39.039 16.4219 37.8593 15.8984 37.4374 14.875C37.0155 13.8516 37.4765 12.7344 38.4999 12.3125C38.7577 12.2031 39.0546 12.125 39.3124 12.125ZM60.6874 12.125C60.9452 12.125 61.2421 12.2031 61.4999 12.3125C62.5234 12.7344 62.9843 13.8516 62.5624 14.875C62.1405 15.8984 60.9609 16.4219 59.9374 16C58.914 15.5781 58.453 14.3984 58.8749 13.375C59.1952 12.6094 59.9062 12.1328 60.6874 12.125ZM34.0624 14.75C34.828 14.6016 35.664 14.9375 36.1249 15.625C36.7421 16.5469 36.4843 17.7578 35.5624 18.375C34.6405 18.9922 33.3671 18.7344 32.7499 17.8125C32.1327 16.8906 32.3905 15.6797 33.3124 15.0625C33.539 14.9063 33.8046 14.7969 34.0624 14.75ZM65.1874 14.75C65.6874 14.6484 66.2265 14.7578 66.6874 15.0625C67.6093 15.6797 67.8671 16.8906 67.2499 17.8125C66.6327 18.7344 65.3593 18.9922 64.4374 18.375C63.5155 17.7578 63.2577 16.5469 63.8749 15.625C64.1796 15.1641 64.6874 14.8516 65.1874 14.75ZM30.1874 18.1875C30.703 18.1875 31.2343 18.4219 31.6249 18.8125C32.4062 19.5938 32.4062 20.8438 31.6249 21.625C30.8437 22.4063 29.5937 22.4063 28.8124 21.625C28.0312 20.8438 28.0312 19.5938 28.8124 18.8125C29.203 18.4219 29.6718 18.1875 30.1874 18.1875ZM69.8124 18.1875C70.328 18.1875 70.7968 18.4219 71.1874 18.8125C71.9687 19.5938 71.9687 20.8438 71.1874 21.625C70.4062 22.4063 69.1562 22.4063 68.3749 21.625C67.5937 20.8438 67.5937 19.5938 68.3749 18.8125C68.7655 18.4219 69.2968 18.1875 69.8124 18.1875ZM26.3124 22.5C26.8124 22.3984 27.3515 22.4453 27.8124 22.75C28.7343 23.3672 28.9921 24.6406 28.3749 25.5625C27.7577 26.4844 26.5468 26.7422 25.6249 26.125C24.703 25.5078 24.4452 24.2344 25.0624 23.3125C25.3671 22.8516 25.8124 22.6016 26.3124 22.5ZM72.8749 22.5C73.6405 22.3516 74.4765 22.625 74.9374 23.3125C75.5546 24.2344 75.2968 25.5078 74.3749 26.125C73.453 26.7422 72.2421 26.4844 71.6249 25.5625C71.0077 24.6406 71.2655 23.4297 72.1874 22.8125C72.414 22.6563 72.6171 22.5469 72.8749 22.5ZM49.3124 25.375H53.0624V53.375H48.0624V33.625H42.4374V30.0625C47.0234 29.7656 49.1562 26.2266 49.3124 25.375ZM24.1249 27.3125C24.3827 27.3125 24.6171 27.3281 24.8749 27.4375C25.8984 27.8594 26.4218 29.0391 25.9999 30.0625C25.578 31.0859 24.3984 31.5469 23.3749 31.125C22.3515 30.7031 21.8905 29.5234 22.3124 28.5C22.6327 27.7344 23.3437 27.3203 24.1249 27.3125ZM75.8749 27.3125C76.6562 27.3203 77.3671 27.7344 77.6874 28.5C78.1093 29.5234 77.6484 30.7031 76.6249 31.125C75.6015 31.5469 74.4218 31.0859 73.9999 30.0625C73.578 29.0391 74.1015 27.8594 75.1249 27.4375C75.3827 27.3281 75.6171 27.3125 75.8749 27.3125ZM22.1249 32.5625C22.3827 32.5078 22.664 32.5078 22.9374 32.5625C24.0234 32.7813 24.7187 33.8516 24.4999 34.9375C24.2812 36.0234 23.2109 36.7188 22.1249 36.5C21.039 36.2813 20.3437 35.2109 20.5624 34.125C20.7265 33.3125 21.3593 32.7188 22.1249 32.5625ZM77.0624 32.5625C78.1484 32.3516 79.2187 33.0391 79.4374 34.125C79.6484 35.2109 78.9609 36.2813 77.8749 36.5C76.789 36.7109 75.7187 36.0156 75.4999 34.9375C75.289 33.8516 75.9765 32.7813 77.0624 32.5625ZM32.4999 35.375L33.9374 38.25L37.0624 38.6875L34.7499 40.9375L35.3124 44.125L32.4999 42.5625L29.6249 44.125L30.1874 40.9375L27.8749 38.6875L31.0624 38.25L32.4999 35.375ZM66.4999 35.375L67.9374 38.25L71.0624 38.6875L68.7499 40.9375L69.3124 44.125L66.4999 42.5625L63.6249 44.125L64.1874 40.9375L61.8749 38.6875L65.0624 38.25L66.4999 35.375ZM21.9999 38C23.1015 38 23.9999 38.8984 23.9999 40C23.9999 41.1016 23.1015 42 21.9999 42C20.8984 42 19.9999 41.1016 19.9999 40C19.9999 38.8984 20.8984 38 21.9999 38ZM77.9999 38C79.1015 38 79.9999 38.8984 79.9999 40C79.9999 41.1016 79.1015 42 77.9999 42C76.8984 42 75.9999 41.1016 75.9999 40C75.9999 38.8984 76.8984 38 77.9999 38ZM22.1249 43.5C23.2109 43.2891 24.2812 43.9844 24.4999 45.0625C24.7109 46.1484 24.0234 47.2266 22.9374 47.4375C21.8515 47.6484 20.7812 46.9609 20.5624 45.875C20.3515 44.7891 21.039 43.7188 22.1249 43.5ZM77.0624 43.5C77.3202 43.4453 77.6015 43.4453 77.8749 43.5C78.9609 43.7188 79.6562 44.7969 79.4374 45.875C79.2187 46.9609 78.1484 47.6563 77.0624 47.4375C75.9765 47.2188 75.2812 46.1484 75.4999 45.0625C75.664 44.25 76.2968 43.6563 77.0624 43.5ZM24.1249 48.6875C24.9062 48.6953 25.6796 49.1719 25.9999 49.9375C26.4218 50.9609 25.8984 52.1406 24.8749 52.5625C23.8515 52.9844 22.7343 52.5234 22.3124 51.5C21.8905 50.4766 22.3515 49.2969 23.3749 48.875C23.6327 48.7656 23.8671 48.6875 24.1249 48.6875ZM75.8749 48.6875C76.1327 48.6875 76.3671 48.7656 76.6249 48.875C77.6484 49.2969 78.1093 50.4766 77.6874 51.5C77.2655 52.5234 76.1484 52.9844 75.1249 52.5625C74.1015 52.1406 73.578 50.9609 73.9999 49.9375C74.3202 49.1719 75.0937 48.6953 75.8749 48.6875ZM26.3124 53.5625C27.078 53.4141 27.914 53.75 28.3749 54.4375C28.9921 55.3594 28.7343 56.5703 27.8124 57.1875C26.8905 57.8047 25.6796 57.6094 25.0624 56.6875C24.4452 55.7656 24.703 54.4922 25.6249 53.875C25.8515 53.7188 26.0546 53.6094 26.3124 53.5625ZM73.6874 53.5625C73.9452 53.6094 74.1484 53.7188 74.3749 53.875C75.2968 54.4922 75.5546 55.7656 74.9374 56.6875C74.3202 57.6094 73.1093 57.8047 72.1874 57.1875C71.2655 56.5703 71.0077 55.3594 71.6249 54.4375C72.0859 53.75 72.9218 53.4141 73.6874 53.5625ZM30.1874 57.8125C30.703 57.8125 31.2343 57.9844 31.6249 58.375C32.4062 59.1563 32.4062 60.4063 31.6249 61.1875C30.8437 61.9688 29.5937 61.9688 28.8124 61.1875C28.0312 60.4063 28.0312 59.1563 28.8124 58.375C29.203 57.9844 29.6718 57.8125 30.1874 57.8125ZM69.8124 57.8125C70.328 57.8125 70.7968 57.9844 71.1874 58.375C71.9687 59.1563 71.9687 60.4063 71.1874 61.1875C70.4062 61.9688 69.1562 61.9688 68.3749 61.1875C67.5937 60.4063 67.5937 59.1563 68.3749 58.375C68.7655 57.9844 69.2968 57.8125 69.8124 57.8125ZM34.0624 61.3125C34.5624 61.2109 35.1015 61.3203 35.5624 61.625C36.4843 62.2422 36.7421 63.4531 36.1249 64.375C35.5077 65.2969 34.2343 65.5547 33.3124 64.9375C32.3905 64.3203 32.1952 63.1094 32.8124 62.1875C33.1171 61.7266 33.5624 61.4141 34.0624 61.3125ZM65.1874 61.3125C65.953 61.1641 66.7265 61.5 67.1874 62.1875C67.8046 63.1094 67.6093 64.3203 66.6874 64.9375C65.7655 65.5547 64.4921 65.2969 63.8749 64.375C63.2577 63.4531 63.5155 62.2422 64.4374 61.625C64.664 61.4688 64.9296 61.3594 65.1874 61.3125ZM39.2499 63.875C39.5077 63.875 39.8046 63.8906 40.0624 64C41.0859 64.4219 41.5468 65.6016 41.1249 66.625C40.703 67.6484 39.5234 68.1094 38.4999 67.6875C37.4765 67.2656 37.0155 66.1484 37.4374 65.125C37.7577 64.3594 38.4687 63.8828 39.2499 63.875ZM60.7499 63.875C61.5312 63.8828 62.2421 64.3594 62.5624 65.125C62.9843 66.1484 62.5234 67.2656 61.4999 67.6875C60.4765 68.1094 59.2968 67.6484 58.8749 66.625C58.453 65.6016 58.914 64.4219 59.9374 64C60.1952 63.8906 60.4921 63.875 60.7499 63.875ZM18.8749 65.0625L8.24992 83.1875C7.90618 83.7656 7.89054 84.4531 8.18742 85.0625C8.4843 85.6641 9.07804 86.1094 9.74992 86.1875L19.7499 87.375L25.1874 95.125C25.5624 95.6641 26.1562 96 26.8124 96C26.8359 96 26.8515 96 26.8749 96C27.5546 95.9766 28.2187 95.5938 28.5624 95L38.3124 78.25C30.5624 75.8828 23.8437 71.2266 18.8749 65.0625ZM81.1249 65.0625C76.1562 71.2266 69.4374 75.8828 61.6874 78.25L71.4374 95C71.7812 95.5938 72.4374 95.9766 73.1249 96C73.1484 96.0078 73.164 96 73.1874 96C73.8437 96 74.4374 95.6641 74.8124 95.125L80.2499 87.375L90.2499 86.1875C90.9218 86.1094 91.5155 85.6641 91.8124 85.0625C92.1171 84.4531 92.0937 83.7656 91.7499 83.1875L81.1249 65.0625ZM44.1249 65.5C44.3827 65.4453 44.664 65.4453 44.9374 65.5C46.0155 65.7188 46.7109 66.7891 46.4999 67.875C46.2812 68.9609 45.2109 69.6563 44.1249 69.4375C43.039 69.2188 42.3437 68.1484 42.5624 67.0625C42.7265 66.25 43.3593 65.6563 44.1249 65.5ZM55.0624 65.5C56.1484 65.2813 57.2187 65.9766 57.4374 67.0625C57.6484 68.1484 56.9609 69.2188 55.8749 69.4375C54.789 69.6484 53.7187 68.9609 53.4999 67.875C53.289 66.7891 53.9765 65.7188 55.0624 65.5ZM49.9999 66C51.1015 66 51.9999 66.8984 51.9999 68C51.9999 69.1016 51.1015 70 49.9999 70C48.8984 70 47.9999 69.1016 47.9999 68C47.9999 66.8984 48.8984 66 49.9999 66Z" fill="white"/>
</svg>
