<svg width="100" height="100" viewBox="0 0 100 100" fill="none" xmlns="http://www.w3.org/2000/svg">
<path d="M60.8 4H14V96H86V29.2L60.8 4ZM72 54C71.798 54 71.604 53.97 71.408 53.94L59.718 68.552C59.894 69.002 60 69.488 60 70C60 72.21 58.21 74 56 74C53.79 74 52 72.21 52 70C52 69.562 52.088 69.15 52.218 68.756L40.808 55.92C40.546 55.972 40.276 56 40 56C39.644 56 39.306 55.938 38.976 55.852L31.85 62.978C31.938 63.306 32 63.644 32 64C32 66.21 30.21 68 28 68C25.79 68 24 66.21 24 64C24 61.79 25.79 60 28 60C28.356 60 28.694 60.062 29.024 60.148L36.15 53.022C36.062 52.694 36 52.356 36 52C36 49.79 37.79 48 40 48C42.21 48 44 49.79 44 52C44 52.438 43.912 52.85 43.782 53.244L55.192 66.08C55.454 66.028 55.724 66 56 66C56.202 66 56.398 66.03 56.592 66.06L68.28 51.448C68.106 50.998 68 50.512 68 50C68 47.79 69.79 46 72 46C74.21 46 76 47.79 76 50C76 52.21 74.21 54 72 54ZM60 30V8.8L81.2 30H60Z" fill="white"/>
</svg>
