<svg width="121" height="119" viewBox="0 0 121 119" fill="none" xmlns="http://www.w3.org/2000/svg">
<path d="M93 51.1046H73.3188C73.1792 49.5741 72.8069 48.1858 72.2021 46.9396C71.6205 45.6934 70.8063 44.6222 69.7594 43.7258C68.7358 42.8075 67.4911 42.1079 66.0255 41.6269C64.5599 41.1241 62.8965 40.8726 61.0354 40.8726C57.7785 40.8726 55.0217 41.616 52.7651 43.1027C50.5318 44.5894 48.8335 46.721 47.6703 49.4976C46.5304 52.2742 45.9604 55.6084 45.9604 59.5C45.9604 63.6103 46.542 67.0537 47.7052 69.8303C48.8917 72.5851 50.6016 74.6621 52.8349 76.0613C55.0682 77.4387 57.7552 78.1274 60.8958 78.1274C62.6872 78.1274 64.2924 77.9197 65.7115 77.5043C67.1306 77.067 68.3635 76.4439 69.4104 75.635C70.4573 74.826 71.3064 73.8531 71.9578 72.7163C72.6325 71.5575 73.0861 70.2567 73.3188 68.8137L93 68.9449C92.7674 71.7871 91.9182 74.6839 90.4526 77.6355C88.987 80.5651 86.9049 83.2761 84.2062 85.7685C81.5309 88.2391 78.2158 90.2286 74.2609 91.7372C70.3061 93.2457 65.7115 94 60.4771 94C53.9167 94 48.0309 92.6773 42.8198 90.0318C37.6319 87.3864 33.5259 83.4948 30.5016 78.3569C27.5005 73.2191 26 66.9335 26 59.5C26 52.0228 27.5354 45.7262 30.6063 40.6103C33.6771 35.4724 37.8181 31.5917 43.0292 28.9682C48.2403 26.3227 54.0562 25 60.4771 25C64.9903 25 69.1429 25.5794 72.9349 26.7381C76.7269 27.8969 80.0536 29.5913 82.9151 31.8213C85.7766 34.0295 88.0797 36.7514 89.8245 39.9872C91.5693 43.2229 92.6278 46.9287 93 51.1046Z" fill="#fe9236"/>
<path d="M6 42.5V6H114.5V42.5" stroke="#fe9236" stroke-width="12" stroke-linecap="round"/>
<path d="M114.5 76V112.5L6 112.5V76" stroke="#fe9236" stroke-width="12" stroke-linecap="round"/>
</svg>
