<svg width="48" height="48" viewBox="0 0 48 48" fill="none" xmlns="http://www.w3.org/2000/svg">
<path d="M26.5 4.00187C26.5 4.00187 21.6072 3.98832 16.6191 5.3007C14.1251 5.95689 11.5748 6.93387 9.53906 8.54093C7.50331 10.148 6 12.5249 6 15.4999C6 17.9999 7.25195 19.8319 8.25195 21.3319C9.25195 22.8319 10 23.9999 10 25.4999C10 26.9999 9.31254 27.8321 8.28711 29.2421C7.26168 30.6521 6 32.5999 6 35.4999C6 40.2499 9.66797 42.7479 9.66797 42.7479C10.1138 43.0554 10.6907 43.0986 11.1774 42.8611C11.6641 42.6236 11.9851 42.1423 12.0171 41.6017C12.0491 41.061 11.7873 40.5451 11.332 40.2518C11.332 40.2518 9 38.7499 9 35.4999C9 33.3999 9.73832 32.3477 10.7129 31.0077C11.6874 29.6677 13 27.9999 13 25.4999C13 22.9999 11.748 21.1679 10.748 19.6679C9.74805 18.1679 9 16.9999 9 15.4999C9 13.4749 9.87169 12.1016 11.3984 10.8964C12.9252 9.69115 15.1249 8.79464 17.3809 8.20108C21.8928 7.01395 26.5 7.00186 26.5 7.00186C27.0409 7.00951 27.5441 6.7253 27.8168 6.25805C28.0895 5.7908 28.0895 5.21291 27.8168 4.74567C27.5441 4.27842 27.0409 3.99422 26.5 4.00187ZM38.1738 14.0097C36.9357 14.0097 35.6977 14.478 34.7617 15.414L16.5469 33.6288C16.2191 33.9543 15.9799 34.3604 15.8535 34.8046V34.8065L15.8516 34.8085L14.0586 41.0878C13.9096 41.6113 14.0558 42.1744 14.4407 42.5592C14.8255 42.9441 15.3886 43.0903 15.9121 42.9413L22.1953 41.1464C22.196 41.1464 22.1966 41.1464 22.1973 41.1464C22.6381 41.0195 23.0417 40.7824 23.3672 40.4569L38.3515 25.4726L39.7031 26.8261C40.0883 27.2109 40.0892 27.7896 39.7031 28.1757L33.4394 34.4394C33.0476 34.8156 32.8897 35.3743 33.0268 35.8999C33.1638 36.4256 33.5743 36.8361 34.1 36.9731C34.6256 37.1101 35.1843 36.9523 35.5605 36.5605L41.8242 30.2968C43.3557 28.7653 43.3558 26.2363 41.8242 24.705V24.703L40.4726 23.3515L41.5859 22.2382C43.4578 20.3663 43.4578 17.2859 41.5859 15.414C40.6499 14.478 39.4119 14.0097 38.1738 14.0097ZM38.1738 16.9921C38.6382 16.9921 39.1028 17.173 39.4648 17.5351C40.1909 18.2611 40.1909 19.391 39.4648 20.1171L21.2969 38.2851L17.6836 39.3163L18.7148 35.703L36.8828 17.5351C37.2449 17.173 37.7094 16.9921 38.1738 16.9921Z" fill="#fe9236"/>
</svg>
