<svg width="48" height="48" viewBox="0 0 48 48" fill="none" xmlns="http://www.w3.org/2000/svg">
<path d="M9.45069 6.00008C9.06988 6.01277 8.70817 6.16988 8.43897 6.43953L6.43897 8.43953C5.94118 8.93681 5.85591 9.71325 6.23389 10.3067L10.0874 16.3555C11.171 18.089 13.5181 18.4118 15.1108 17.2325L22.9253 25.0469C21.5889 27.3489 21.7938 30.321 23.7476 32.2969H23.7456L31.6597 40.3184C31.661 40.3191 31.6623 40.3197 31.6636 40.3204C34.0037 42.6777 37.8553 42.6915 40.2124 40.3516C42.5679 38.0133 42.585 34.1611 40.2476 31.8047L40.2436 31.8008L32.3452 23.795C32.3446 23.795 32.3439 23.795 32.3433 23.795C30.3731 21.8036 27.3711 21.5804 25.0484 22.9278L17.2319 15.1114C18.4095 13.5196 18.0888 11.1747 16.3589 10.0899L10.3062 6.23444C10.0512 6.07187 9.75295 5.99018 9.45069 6.00008ZM31.4136 6.00008C25.7956 6.00008 21.207 10.4383 20.939 15.9903L24.1382 19.1876C24.2182 18.9266 24.2307 18.6461 24.1597 18.3731C23.9957 17.7361 23.9136 17.1061 23.9136 16.5001C23.9136 12.3641 27.2776 9.00008 31.4136 9.00008C31.7966 9.00008 32.1763 9.02997 32.5503 9.08797L29.3179 12.3184C28.4669 13.1684 27.9995 14.2981 27.9995 15.5001C27.9995 16.7021 28.4679 17.8317 29.3179 18.6817C30.1679 19.5317 31.2975 20.0001 32.4995 20.0001C33.7015 20.0001 34.8311 19.5317 35.6811 18.6817L38.8491 15.5157C38.8931 15.8407 38.9136 16.1691 38.9136 16.5001C38.9136 19.4791 37.1661 22.0714 34.6421 23.2774L36.8276 25.4903C39.8726 23.6503 41.9136 20.3081 41.9136 16.4981C41.9136 14.9551 41.5776 13.4589 40.9136 12.0469C40.7056 11.6049 40.296 11.2891 39.814 11.2051C39.335 11.1211 38.8406 11.2781 38.4956 11.6231L33.5601 16.5587C32.9941 17.1247 32.005 17.1257 31.439 16.5587C31.156 16.2767 30.9995 15.9001 30.9995 15.5001C30.9995 15.1001 31.156 14.7235 31.439 14.4395L36.4038 9.47273C36.7468 9.12973 36.9037 8.64314 36.8237 8.16414C36.7437 7.68614 36.4365 7.27558 36.0015 7.06258C34.5515 6.35758 33.0086 6.00008 31.4136 6.00008ZM9.7085 9.41219L14.7534 12.6251C14.7573 12.627 14.7612 12.629 14.7651 12.6309C15.065 12.8183 15.1035 13.1578 14.853 13.4083L13.4077 14.8536C13.1564 15.1052 12.8195 15.0682 12.6304 14.7657C12.6284 14.7618 12.6265 14.7579 12.6245 14.754L9.41163 9.70906L9.7085 9.41219ZM17.2124 22.1622L7.75538 31.6934C6.61738 32.8394 5.99352 34.3616 5.99952 35.9766C6.00552 37.5916 6.64068 39.1072 7.78468 40.2442C8.92568 41.3772 10.4365 42.0001 12.0444 42.0001H12.0659C13.6809 41.9941 15.1975 41.3599 16.3355 40.2129L22.5523 33.9454L22.2026 33.5938C21.5896 32.9738 21.1088 32.2677 20.7378 31.5157L14.2066 38.0997C13.6336 38.6767 12.8692 38.9971 12.0562 39.0001C11.2042 38.9861 10.4769 38.6893 9.89992 38.1153C9.32192 37.5423 9.00253 36.7789 8.99953 35.9649C8.99653 35.1519 9.3113 34.3857 9.8843 33.8087L19.3335 24.2833L17.2124 22.1622ZM28.0581 24.9903C28.8351 24.9938 29.6118 25.2992 30.2104 25.9044L38.1108 33.9122C38.1121 33.9135 38.1134 33.9148 38.1147 33.9161C39.3113 35.1201 39.3043 37.0263 38.0991 38.2227C36.8922 39.4208 34.9904 39.4138 33.7925 38.2071L25.8804 30.1895C25.8804 30.1889 25.8804 30.1882 25.8804 30.1876C24.6866 28.9802 24.6958 27.0802 25.8999 25.8848C26.504 25.2852 27.2811 24.9868 28.0581 24.9903Z" fill="#fe9236"/>
</svg>
